<svg width="193" height="37" viewBox="0 0 193 37" fill="none" xmlns="http://www.w3.org/2000/svg">
<path d="M7.50488 13.3193C8.04935 12.8903 8.6541 12.5212 9.31934 12.2129C10.6599 11.5917 12.1313 11.2813 13.7334 11.2812C15.9896 11.2812 17.9847 11.8204 19.7178 12.8994C21.4835 13.9785 22.8569 15.4506 23.8379 17.3145C23.9134 17.4534 23.9848 17.5945 24.0547 17.7363C24.1224 17.5943 24.1924 17.4535 24.2656 17.3145C25.2793 15.4506 26.6366 13.9785 28.3369 12.8994C30.0699 11.8205 32.0319 11.2813 34.2227 11.2812C35.8249 11.2812 37.2638 11.5916 38.5391 12.2129C39.3966 12.6202 40.1482 13.1338 40.7949 13.752V11.7715H48.1523V17.3828C48.3192 16.4076 48.6746 15.5345 49.2188 14.7637C50.0035 13.6193 51.1151 12.7203 52.5537 12.0664C53.9924 11.4124 55.6763 11.085 57.6055 11.085C59.6328 11.085 61.4969 11.4447 63.1973 12.1641C64.9302 12.8507 66.336 13.8807 67.415 15.2539L63.1484 19.5703C62.3964 18.6875 61.5459 18.0667 60.5977 17.707C59.6822 17.3474 58.7831 17.1671 57.9004 17.167C57.0503 17.167 56.4124 17.2981 55.9873 17.5596C55.5622 17.7885 55.3496 18.1321 55.3496 18.5898C55.3497 19.0802 55.6278 19.4724 56.1836 19.7666C56.7394 20.0608 57.4591 20.3229 58.3418 20.5518C59.2245 20.7806 60.156 21.0588 61.1367 21.3857C62.1177 21.7127 63.0498 22.1541 63.9326 22.71C64.1418 22.8417 64.3414 22.9849 64.5322 23.1387C64.6119 20.9748 65.1642 19.0334 66.1895 17.3145C67.3339 15.418 68.8706 13.9297 70.7998 12.8506C72.7289 11.7716 74.9037 11.2325 77.3232 11.2324C79.6776 11.2324 81.7543 11.7393 83.5527 12.7529C85.3512 13.7666 86.7578 15.1722 87.7715 16.9707C87.8723 17.1441 87.9665 17.3208 88.0576 17.499V11.7715H95.5625V13.5332C96.0627 13.0967 96.619 12.722 97.2305 12.4092C98.6365 11.6572 100.223 11.2812 101.988 11.2812C103.656 11.2813 105.143 11.6572 106.451 12.4092C107.429 12.9577 108.258 13.6637 108.94 14.5254C109.672 13.7015 110.527 13.0289 111.504 12.5078C113.008 11.6904 114.692 11.2812 116.556 11.2812C118.387 11.2813 120.005 11.6734 121.411 12.458C122.85 13.2101 123.978 14.3063 124.796 15.7451C125.201 16.4146 125.508 17.1512 125.72 17.9541C125.831 17.7377 125.948 17.5242 126.073 17.3145C127.218 15.4179 128.754 13.9297 130.684 12.8506C132.613 11.7716 134.787 11.2325 137.207 11.2324C139.561 11.2324 141.638 11.7393 143.437 12.7529C145.235 13.7666 146.642 15.1723 147.655 16.9707C147.756 17.1441 147.85 17.3208 147.941 17.499V11.7715H155.446V13.6387C155.958 13.182 156.531 12.7884 157.163 12.458C158.634 11.6733 160.286 11.2812 162.117 11.2812C163.883 11.2813 165.436 11.7065 166.776 12.5566C167.546 13.0146 168.223 13.5599 168.808 14.1924V11.7715H174.203V1.91309H181.707V11.7715H187.103V18.1484H181.707V35.6094H174.203V18.1484H170.933C171.104 18.8556 171.191 19.5912 171.191 20.3555V35.6094H163.687V22.0234C163.687 20.7811 163.294 19.7833 162.51 19.0312C161.758 18.2465 160.792 17.8535 159.615 17.8535C158.798 17.8535 158.078 18.0339 157.457 18.3936C156.836 18.7205 156.345 19.2113 155.985 19.8652C155.626 20.4864 155.446 21.2062 155.446 22.0234V35.6094H147.941V26.1445L131.796 26.1836C131.905 26.568 132.039 26.9313 132.204 27.2715C132.727 28.2523 133.447 29.0203 134.362 29.5762C135.311 30.0994 136.423 30.3613 137.698 30.3613C138.875 30.3613 139.938 30.1648 140.886 29.7725C141.834 29.3474 142.668 28.7266 143.388 27.9092L147.508 32.0293C146.331 33.4026 144.908 34.4325 143.24 35.1191C141.573 35.8058 139.742 36.1494 137.747 36.1494C135.164 36.1494 132.858 35.6255 130.831 34.5791C128.836 33.5 127.267 32.0127 126.122 30.1162C126.105 30.0872 126.089 30.0574 126.071 30.0283V35.6094H118.566V21.6797C118.566 20.4698 118.191 19.5378 117.438 18.8838C116.719 18.1971 115.819 17.8535 114.74 17.8535C113.988 17.8536 113.318 18.0178 112.729 18.3447C112.141 18.6389 111.667 19.0636 111.308 19.6191C110.981 20.175 110.816 20.8622 110.816 21.6797V35.6094H103.312V21.6797C103.312 20.4699 102.937 19.5378 102.185 18.8838C101.465 18.1971 100.565 17.8535 99.4863 17.8535C98.7343 17.8535 98.0641 18.0178 97.4756 18.3447C96.8871 18.639 96.4124 19.0634 96.0527 19.6191C95.7257 20.175 95.5625 20.8622 95.5625 21.6797V35.6094H88.0576V26.1445L71.9121 26.1836C72.0215 26.568 72.1557 26.9313 72.3203 27.2715C72.8434 28.2523 73.5631 29.0203 74.4785 29.5762C75.4268 30.0994 76.5392 30.3613 77.8145 30.3613C78.9914 30.3613 80.0538 30.1648 81.002 29.7725C81.9502 29.3474 82.7846 28.7266 83.5039 27.9092L87.624 32.0293C86.4469 33.4026 85.024 34.4325 83.3564 35.1191C81.6889 35.8057 79.8578 36.1494 77.8633 36.1494C75.28 36.1494 72.9746 35.6255 70.9473 34.5791C69.1739 33.6197 67.7371 32.337 66.6357 30.7314C66.246 32.0802 65.4613 33.216 64.2764 34.1377C62.5433 35.5111 60.1885 36.1982 57.2129 36.1982C55.8069 36.1982 54.4172 36.0179 53.0439 35.6582C51.7034 35.2985 50.4447 34.7916 49.2676 34.1377C48.8765 33.9031 48.5052 33.656 48.1523 33.3984V35.6094H40.7949V33.6768C40.1683 34.2692 39.4329 34.7666 38.5879 35.168C37.2799 35.7892 35.8249 36.0996 34.2227 36.0996C32.0319 36.0996 30.0699 35.5605 28.3369 34.4814C26.6366 33.4024 25.2793 31.9311 24.2656 30.0674C24.1923 29.9281 24.1225 29.7867 24.0547 29.6445C23.9847 29.7865 23.9135 29.9283 23.8379 30.0674C22.8569 31.9311 21.4834 33.4024 19.7178 34.4814C17.9847 35.5605 15.9896 36.0996 13.7334 36.0996C12.1313 36.0996 10.6599 35.7731 9.31934 35.1191C8.61338 34.7576 7.97621 34.3359 7.40625 33.8564V35.6094H0V0H7.50488V13.3193ZM188.537 27.0752C189.845 27.0753 190.907 27.5167 191.725 28.3994C192.575 29.2496 193 30.3287 193 31.6367C193 32.8792 192.575 33.9424 191.725 34.8252C190.907 35.7077 189.845 36.1493 188.537 36.1494C187.262 36.1494 186.199 35.7079 185.349 34.8252C184.498 33.9424 184.073 32.8792 184.073 31.6367C184.073 30.3287 184.498 29.2496 185.349 28.3994C186.199 27.5165 187.262 27.0752 188.537 27.0752ZM48.1523 29.9346L50.5918 27.4678C51.3765 28.3178 52.3087 28.9881 53.3877 29.4785C54.4667 29.9362 55.6438 30.165 56.9189 30.165C57.8018 30.165 58.4719 30.034 58.9297 29.7725C59.4202 29.5109 59.666 29.1511 59.666 28.6934C59.6659 28.105 59.3715 27.6634 58.7832 27.3691C58.2274 27.0422 57.5078 26.764 56.625 26.5352C55.7421 26.2736 54.81 25.9955 53.8291 25.7012C52.8482 25.4069 51.916 24.9987 51.0332 24.4756C50.1504 23.9524 49.4309 23.2329 48.875 22.3174C48.5211 21.7137 48.2809 21.0104 48.1523 20.208V29.9346ZM12.4092 18.0498C11.3629 18.0498 10.4307 18.2957 9.61328 18.7861C8.79599 19.2439 8.15791 19.898 7.7002 20.748C7.27529 21.5981 7.0635 22.5789 7.06348 23.6904C7.06348 24.8022 7.29221 25.7836 7.75 26.6338C8.20773 27.4837 8.8287 28.1541 9.61328 28.6445C10.4307 29.1023 11.3629 29.331 12.4092 29.3311C13.4556 29.3311 14.3715 29.0862 15.1562 28.5957C15.9737 28.1053 16.6116 27.435 17.0693 26.585C17.5271 25.7348 17.7559 24.7695 17.7559 23.6904C17.7558 22.5789 17.527 21.5981 17.0693 20.748C16.6116 19.898 15.9736 19.2439 15.1562 18.7861C14.3715 18.2956 13.4556 18.0498 12.4092 18.0498ZM35.792 18.0498C34.7457 18.0498 33.8135 18.2957 32.9961 18.7861C32.2115 19.2439 31.5744 19.898 31.084 20.748C30.6263 21.5982 30.3965 22.5788 30.3965 23.6904C30.3965 24.7695 30.6262 25.7348 31.084 26.585C31.5417 27.4348 32.1789 28.1053 32.9961 28.5957C33.8136 29.0862 34.7295 29.331 35.7432 29.3311C37.3454 29.3311 38.6372 28.8081 39.6182 27.7617C40.5991 26.6826 41.0898 25.3254 41.0898 23.6904C41.0898 22.5789 40.8609 21.5981 40.4033 20.748C39.9783 19.8979 39.3564 19.2439 38.5391 18.7861C37.7543 18.2956 36.8384 18.0498 35.792 18.0498ZM77.373 16.9707C76.1959 16.9707 75.1651 17.2488 74.2822 17.8047C73.4323 18.3278 72.7619 19.0798 72.2715 20.0605C72.13 20.3637 72.0138 20.6885 71.916 21.0322L82.3291 21.0029C82.2279 20.5482 82.0986 20.1356 81.9346 19.7666C81.5423 18.8512 80.9535 18.1648 80.1689 17.707C79.4169 17.2166 78.4847 16.9708 77.373 16.9707ZM137.257 16.9707C136.08 16.9707 135.049 17.2488 134.166 17.8047C133.316 18.3278 132.646 19.0798 132.155 20.0605C132.014 20.3638 131.897 20.6884 131.799 21.0322L142.213 21.0029C142.112 20.5482 141.982 20.1356 141.818 19.7666C141.426 18.851 140.837 18.1648 140.052 17.707C139.3 17.2167 138.368 16.9708 137.257 16.9707Z" fill="#E6FF00"/>
</svg>
